<svg xmlns="http://www.w3.org/2000/svg" viewBox="0 0 620 620" role="img" aria-labelledby="title desc">
  <title id="title">Capoeira Angola instruments and movement</title>
  <desc id="desc">A stylized berimbau, pandeiro, and two Capoeira Angola players in motion.</desc>
  <rect width="620" height="620" rx="36" fill="#fbfaf6"/>
  <circle cx="310" cy="310" r="240" fill="#edf5f2"/>
  <circle cx="310" cy="310" r="184" fill="#fff" stroke="#d9ded9" stroke-width="3"/>

  <path d="M421 79c-82 111-98 249-46 410" fill="none" stroke="#116b54" stroke-width="12" stroke-linecap="round"/>
  <path d="M391 99c77 118 80 252 8 403" fill="none" stroke="#182024" stroke-width="4" stroke-linecap="round"/>
  <circle cx="390" cy="453" r="40" fill="#d8a028" stroke="#182024" stroke-width="8"/>
  <circle cx="390" cy="453" r="18" fill="#fbfaf6" stroke="#182024" stroke-width="5"/>
  <path d="M424 185l47-17" stroke="#b64032" stroke-width="11" stroke-linecap="round"/>
  <path d="M437 219l51-3" stroke="#265b8f" stroke-width="11" stroke-linecap="round"/>

  <circle cx="201" cy="405" r="54" fill="#fbfaf6" stroke="#182024" stroke-width="8"/>
  <circle cx="201" cy="405" r="36" fill="none" stroke="#d8a028" stroke-width="7"/>
  <circle cx="201" cy="405" r="6" fill="#b64032"/>
  <circle cx="231" cy="386" r="5" fill="#116b54"/>
  <circle cx="170" cy="421" r="5" fill="#265b8f"/>

  <path d="M212 255c30-38 79-39 108-5" fill="none" stroke="#116b54" stroke-width="14" stroke-linecap="round"/>
  <circle cx="236" cy="220" r="20" fill="#182024"/>
  <path d="M249 239l43 48 58 18" fill="none" stroke="#182024" stroke-width="14" stroke-linecap="round" stroke-linejoin="round"/>
  <path d="M290 287l-35 45-57 15" fill="none" stroke="#b64032" stroke-width="14" stroke-linecap="round" stroke-linejoin="round"/>
  <path d="M341 304l34 40" fill="none" stroke="#265b8f" stroke-width="14" stroke-linecap="round"/>

  <path d="M336 372c-42 33-91 25-122-19" fill="none" stroke="#d8a028" stroke-width="14" stroke-linecap="round"/>
  <circle cx="342" cy="347" r="20" fill="#182024"/>
  <path d="M328 365l-50 34-64-5" fill="none" stroke="#182024" stroke-width="14" stroke-linecap="round" stroke-linejoin="round"/>
  <path d="M279 399l18 57 45 35" fill="none" stroke="#116b54" stroke-width="14" stroke-linecap="round" stroke-linejoin="round"/>
  <path d="M217 394l-41 25" fill="none" stroke="#b64032" stroke-width="14" stroke-linecap="round"/>

  <path d="M135 504c115 47 239 44 350-11" fill="none" stroke="#182024" stroke-width="5" stroke-linecap="round" opacity=".22"/>
</svg>
